<svg width="55" height="21" viewBox="0 0 55 21" fill="none" xmlns="http://www.w3.org/2000/svg">
<path d="M7.91467 16.3627C6.72 16.3627 5.63911 16.1636 4.672 15.7653C3.70489 15.3671 2.87289 14.8124 2.176 14.1013C1.47911 13.3902 0.938667 12.5653 0.554667 11.6267C0.184889 10.688 0 9.67822 0 8.59733C0 7.51645 0.184889 6.50667 0.554667 5.568C0.938667 4.62933 1.472 3.81156 2.15467 3.11467C2.85156 2.40356 3.68356 1.856 4.65067 1.472C5.632 1.07378 6.72 0.874667 7.91467 0.874667C9.09511 0.874667 10.1689 1.07378 11.136 1.472C12.1173 1.856 12.9493 2.40356 13.632 3.11467C14.3289 3.81156 14.8693 4.63644 15.2533 5.58933C15.6373 6.528 15.8293 7.53067 15.8293 8.59733C15.8293 9.67822 15.6373 10.688 15.2533 11.6267C14.8693 12.5653 14.3289 13.3902 13.632 14.1013C12.9493 14.8124 12.1173 15.3671 11.136 15.7653C10.1689 16.1636 9.09511 16.3627 7.91467 16.3627ZM7.91467 13.312C8.54044 13.312 9.11644 13.1982 9.64267 12.9707C10.1831 12.7289 10.6453 12.3947 11.0293 11.968C11.4133 11.5413 11.712 11.0436 11.9253 10.4747C12.1387 9.89156 12.2453 9.26578 12.2453 8.59733C12.2453 7.92889 12.1387 7.31022 11.9253 6.74133C11.712 6.17244 11.4133 5.67467 11.0293 5.248C10.6453 4.82133 10.1831 4.49422 9.64267 4.26667C9.11644 4.02489 8.54044 3.904 7.91467 3.904C7.27467 3.904 6.69156 4.02489 6.16533 4.26667C5.63911 4.49422 5.17689 4.82133 4.77867 5.248C4.39467 5.67467 4.096 6.17956 3.88267 6.76267C3.68356 7.33156 3.584 7.94311 3.584 8.59733C3.584 9.26578 3.68356 9.89156 3.88267 10.4747C4.096 11.0436 4.39467 11.5413 4.77867 11.968C5.17689 12.3947 5.63911 12.7289 6.16533 12.9707C6.69156 13.1982 7.27467 13.312 7.91467 13.312ZM23.4417 16.3413C22.2612 16.3413 21.2301 16.0996 20.3484 15.616C19.4666 15.1324 18.7839 14.4427 18.3004 13.5467C17.8168 12.6507 17.575 11.6053 17.575 10.4107V0.512H20.8817V6.336H20.9457C21.159 6.03733 21.4221 5.78133 21.735 5.568C22.0621 5.34044 22.4177 5.16978 22.8017 5.056C23.1999 4.94222 23.6195 4.88533 24.0604 4.88533C25.0986 4.88533 26.0088 5.12 26.791 5.58933C27.5732 6.05867 28.1848 6.70578 28.6257 7.53067C29.0808 8.35556 29.3084 9.32267 29.3084 10.432C29.3084 11.2853 29.1732 12.0747 28.903 12.8C28.6328 13.5253 28.2417 14.1582 27.7297 14.6987C27.2319 15.2249 26.6204 15.6302 25.895 15.9147C25.1839 16.1991 24.3661 16.3413 23.4417 16.3413ZM23.4417 13.4827C23.9537 13.4827 24.3946 13.3618 24.7644 13.12C25.1341 12.864 25.4186 12.5227 25.6177 12.096C25.831 11.6551 25.9377 11.1644 25.9377 10.624C25.9377 10.0836 25.831 9.6 25.6177 9.17333C25.4186 8.74667 25.1341 8.41244 24.7644 8.17067C24.3946 7.91467 23.9537 7.78667 23.4417 7.78667C22.9297 7.78667 22.4817 7.91467 22.0977 8.17067C21.7279 8.41244 21.4435 8.74667 21.2444 9.17333C21.0452 9.6 20.9457 10.0836 20.9457 10.624C20.9457 11.1644 21.0452 11.6551 21.2444 12.096C21.4435 12.5227 21.7279 12.864 22.0977 13.12C22.4817 13.3618 22.9297 13.4827 23.4417 13.4827ZM31.2645 16.0853V0.512H34.5712V16.0853H31.2645ZM37.0145 16.0853V5.14133H40.3425V16.0853H37.0145ZM38.6785 3.904C38.1523 3.904 37.6972 3.712 37.3132 3.328C36.9292 2.944 36.7372 2.48889 36.7372 1.96267C36.7372 1.43644 36.9292 0.981333 37.3132 0.597333C37.6972 0.199111 38.1523 0 38.6785 0C39.2047 0 39.6598 0.199111 40.0438 0.597333C40.4278 0.981333 40.6198 1.43644 40.6198 1.96267C40.6198 2.48889 40.4278 2.944 40.0438 3.328C39.6598 3.712 39.2047 3.904 38.6785 3.904ZM46.5191 20.416V15.7013H49.8471V20.416H46.5191ZM48.1831 16.3413C47.0596 16.3413 46.0498 16.0924 45.1538 15.5947C44.2578 15.0969 43.5467 14.4142 43.0204 13.5467C42.5084 12.6791 42.2524 11.7049 42.2524 10.624C42.2524 9.52889 42.5084 8.55467 43.0204 7.70133C43.5467 6.83378 44.2578 6.15111 45.1538 5.65333C46.0498 5.14133 47.0596 4.88533 48.1831 4.88533C49.3067 4.88533 50.3093 5.14133 51.1911 5.65333C52.0871 6.15111 52.7911 6.83378 53.3031 7.70133C53.8293 8.55467 54.0924 9.52889 54.0924 10.624C54.0924 11.7049 53.8293 12.6791 53.3031 13.5467C52.7911 14.4142 52.0871 15.0969 51.1911 15.5947C50.2951 16.0924 49.2924 16.3413 48.1831 16.3413ZM48.1831 13.4613C48.7093 13.4613 49.1644 13.3333 49.5485 13.0773C49.9324 12.8213 50.2311 12.48 50.4444 12.0533C50.6578 11.6267 50.7644 11.1431 50.7644 10.6027C50.7644 10.0764 50.6578 9.6 50.4444 9.17333C50.2311 8.74667 49.9324 8.40533 49.5485 8.14933C49.1644 7.89333 48.7093 7.76533 48.1831 7.76533C47.6569 7.76533 47.1947 7.89333 46.7964 8.14933C46.4124 8.40533 46.1138 8.74667 45.9004 9.17333C45.6871 9.6 45.5804 10.0764 45.5804 10.6027C45.5804 11.1431 45.6871 11.6267 45.9004 12.0533C46.1138 12.48 46.4124 12.8213 46.7964 13.0773C47.1947 13.3333 47.6569 13.4613 48.1831 13.4613Z" fill="#331100"/>
</svg>
